<?xml version="1.0" encoding="UTF-8"?>
<svg xmlns="http://www.w3.org/2000/svg" id="Layer_1" data-name="Layer 1" viewBox="0 0 24 24" width="512" height="512">
<path d="M8.878,18.585l-.859,4.974c-.043,.244-.254,.415-.492,.415-.028,0-.058-.002-.086-.007-.272-.047-.455-.306-.408-.578l.859-4.974c.048-.272,.311-.456,.578-.408,.272,.047,.455,.306,.408,.578ZM20,7.5V23.5c0,.276-.224,.5-.5,.5s-.5-.224-.5-.5V11h-3.5c-.189,0-.362-.107-.447-.276l-1.279-2.558-.779,5.405c-.036,.249-.25,.429-.494,.429-.024,0-.048-.001-.072-.005-.273-.04-.463-.293-.424-.566l.905-6.283c-.198-.094-.417-.146-.646-.146h-2.328l-.903,6.509c-.122,.63,.135,1.236,.651,1.571l4.077,2.493c.148,.091,.239,.252,.239,.427v5.5c0,.276-.224,.5-.5,.5s-.5-.224-.5-.5v-5.22l-3.85-2.354c-.606-.393-.997-1.002-1.114-1.674-.485,.415-1.152,.747-2.047,.747-1.431,0-2.97-1.095-2.97-3.5,0-3.443,3.261-5.5,6.414-5.5h2.83c.953,0,1.81,.529,2.236,1.382l1.309,2.618h3.191v-2.5c0-.276,.224-.5,.5-.5s.5,.224,.5,.5Zm-11.818,4.863l.741-5.343c-2.491,.199-4.904,1.843-4.904,4.479,0,1.974,1.238,2.5,1.97,2.5,1.491,0,2.094-1.382,2.193-1.637Zm1.818-9.863c0-1.378,1.121-2.5,2.5-2.5s2.5,1.122,2.5,2.5-1.121,2.5-2.5,2.5-2.5-1.122-2.5-2.5Zm1,0c0,.827,.673,1.5,1.5,1.5s1.5-.673,1.5-1.5-.673-1.5-1.5-1.5-1.5,.673-1.5,1.5Z"/></svg>
