<?xml version="1.0" ?>
<svg viewBox="0 0 64 64" xmlns="http://www.w3.org/2000/svg"><g data-name="Layer 32" id="Layer_32">
<path d="M60,7a1,1,0,0,0-1-1H13V2a1,1,0,0,0-1-1H8A7.008,7.008,0,0,0,1,8V50a7.008,7.008,0,0,0,7,7H31.622A17.978,17.978,0,0,0,60,35.072ZM49,27.464V19h9V32.584A17.971,17.971,0,0,0,49,27.464ZM27.464,41h-3.2l5.547-16H43v2.118A18.028,18.028,0,0,0,27.464,41ZM44,23H29.1a1,1,0,0,0-.945.672l-6.24,18A1,1,0,0,0,22.86,43h4.258A18.1,18.1,0,0,0,27,45H21.47a1,1,0,0,0-.945.672L17.288,55H14.406l7.569-21.812a1,1,0,0,0-.471-1.209L13,27.4V24.674l9.016,4.856a1,1,0,0,0,.474.12,1,1,0,0,0,.945-.672L30.712,8H33.6l-4.05,11.672A1,1,0,0,0,30.49,21H44a1,1,0,0,0,1-1V8h2v6a1,1,0,0,0,1,1H58v2H48a1,1,0,0,0-1,1v9.118A18.1,18.1,0,0,0,45,27V24A1,1,0,0,0,44,23ZM35.712,8H43V19H31.9ZM58,13H49V8h9ZM28.6,8,21.93,27.212,13,22.4V8ZM3,8A5.006,5.006,0,0,1,8,3h3V43H8a6.973,6.973,0,0,0-5,2.111ZM3,50a5.006,5.006,0,0,1,5-5h4a1,1,0,0,0,1-1V29.674l6.806,3.663L12.288,55H8A5.006,5.006,0,0,1,3,50Zm16.406,5,2.776-8h4.936a17.878,17.878,0,0,0,2.926,8ZM45,61A16,16,0,1,1,61,45,16.019,16.019,0,0,1,45,61Z"/><path d="M45,31A14,14,0,1,0,59,45,14.015,14.015,0,0,0,45,31Zm0,26A12,12,0,1,1,57,45,12.013,12.013,0,0,1,45,57Z"/><path d="M51.628,37.071l-10,4a1,1,0,0,0-.557.558l-4,10a1,1,0,0,0,1.3,1.3l10-4a1,1,0,0,0,.557-.558l4-10a1,1,0,0,0-1.3-1.3ZM42.365,43.78l3.855,3.855L39.8,50.205Zm5.27,2.44L43.78,42.365l6.425-2.57Z"/></g></svg>