<?xml version="1.0" encoding="UTF-8"?>
<svg xmlns="http://www.w3.org/2000/svg" id="Layer_1" data-name="Layer 1" viewBox="0 0 24 24">
  <path d="m13.5,5c1.378,0,2.5-1.121,2.5-2.5s-1.122-2.5-2.5-2.5-2.5,1.121-2.5,2.5,1.122,2.5,2.5,2.5Zm0-4c.827,0,1.5.673,1.5,1.5s-.673,1.5-1.5,1.5-1.5-.673-1.5-1.5.673-1.5,1.5-1.5ZM3.5,10c1.378,0,2.5-1.121,2.5-2.5s-1.122-2.5-2.5-2.5-2.5,1.121-2.5,2.5,1.122,2.5,2.5,2.5Zm0-4c.827,0,1.5.673,1.5,1.5s-.673,1.5-1.5,1.5-1.5-.673-1.5-1.5.673-1.5,1.5-1.5Zm19.729,7.08l-5.229,3.374v-1.954c0-.827-.673-1.5-1.5-1.5h-.5v-6h3.5c.276,0,.5-.224.5-.5v-1.291l3.435-1.72c.354-.243.565-.656.565-1.104s-.211-.86-.565-1.104c-.025-.018-2.328-1.051-2.328-1.051-.157-.07-.317-.13-.478-.178-.379-.116-.782-.044-1.105.196-.328.243-.523.631-.523,1.037v4.713h-5.5c-.741,0-1.408.325-1.866.839l-2.979,2.89c-.209.203-.471.34-.755.396l-5.317,1.05c-.961.38-1.582,1.293-1.582,2.326v7.882l-.947,1.895c-.124.247-.023.547.224.671.072.036.148.053.223.053.184,0,.36-.102.448-.276l1-2c.035-.069.053-.146.053-.224v-2.5h4.5c.276,0,.5.225.5.5v4c0,.276.224.5.5.5h.5c.096,0,.19-.027.271-.08l15.5-10c.232-.149.299-.459.149-.691-.149-.23-.458-.301-.691-.148Zm-3.229-11.793c0-.132.083-.207.119-.234.029-.021.083-.052.151-.052.022,0,.309.09.426.143l2.198.983c.066.06.105.154.105.259,0,.118-.049.223-.072.244l-2.928,1.462V1.287Zm-3,13.213v2.5c0,.032.003.063.009.093l-5.009,3.232v-6.325h4.5c.276,0,.5.225.5.5Zm-2-7.5v6h-3v-4.5c0-.828.672-1.5,1.5-1.5h1.5ZM2,13.5c0-.62.373-1.168.862-1.371l2.138-.419v6.29h-3v-4.5Zm6,9.405v-3.405c0-.827-.673-1.5-1.5-1.5h-.5v-6.485l2.091-.409c.476-.094.911-.321,1.26-.659l1.649-1.599v12.123l-3,1.935Z"/>
</svg>
