<?xml version="1.0" encoding="utf-8"?>
<!-- Generator: $$$/GeneralStr/196=Adobe Illustrator 27.6.0, SVG Export Plug-In . SVG Version: 6.00 Build 0)  -->
<svg version="1.1" id="Layer_1" xmlns="http://www.w3.org/2000/svg" xmlns:xlink="http://www.w3.org/1999/xlink" x="0px" y="0px"
	 viewBox="0 0 512 512" style="enable-background:new 0 0 512 512;" xml:space="preserve">
<path d="M160.5,423.8c-6.1,0-12.3-2-17.6-5.9c-10-7.3-14-20.5-10.3-32.2l27.5-88.1l-69.4-56.5c-9.6-8.2-12.8-21.1-8.7-32.5
	c4.1-11.5,15.2-19.1,27.5-19.1h87.8l31-83.4C232.6,95,243.4,88,256,88c12.6,0,23.4,7.1,27.5,18.2l31,83.4h87.8
	c12.3,0,23.4,7.6,27.5,19.3l0,0c4.1,11.5,0.9,24.6-8.5,32.2l-69.4,56.5l28.7,87.2c3.8,11.7,0,24.9-10,32.2
	c-10,7.6-23.4,8.2-33.7,1.5l-80.5-52.4l-79.3,53c-5,3.2-10.8,5-16.4,5L160.5,423.8z M109.6,218.5l76.7,62.4c4.7,3.8,6.4,10,4.7,15.8
	l-30.4,97.8l87.2-58.2c5-3.2,11.1-3.2,16.1,0l88.7,57.7L320.7,297c-2-5.9,0-12,4.7-15.8l76.7-62.4h-98c-6.1,0-11.7-3.8-13.8-9.6
	l-34.6-93.1l-34.6,93.1c-2,5.9-7.6,9.6-13.8,9.6h-98.1L109.6,218.5z M402.4,218.5L402.4,218.5z M402.4,218.5L402.4,218.5
	L402.4,218.5z"/>
</svg>
