<?xml version="1.0" encoding="UTF-8"?>
<svg xmlns="http://www.w3.org/2000/svg" id="Layer_1" data-name="Layer 1" viewBox="0 0 24 24" width="512" height="512">
<path d="M23.716,21.323c-.245-.119-.547-.016-.667,.234-.597,1.243-2.088,1.77-3.348,1.167l-2.702-1.203v-5.144c.001-.696-.293-1.367-.806-1.839l-1.993-1.832c-.107-.081-.177-.198-.195-.331-.019-.134,.017-.266,.094-.367l3.416-4.303,5.713,3.714c.084,.055,.179,.081,.272,.081,.163,0,.323-.08,.419-.228,.15-.231,.085-.541-.146-.692L14.767,4.727c-.731-.475-1.579-.727-2.452-.727h-1.157c-.936,0-1.814-.364-2.476-1.025l-1.828-1.829c-.195-.195-.512-.195-.707,0s-.195,.512,0,.707l1.828,1.829c.85,.85,1.98,1.318,3.183,1.318h1.157c.307,0,.611,.04,.903,.119l-3.7,4.538c-.334,.435-.518,.976-.518,1.523v2.084c0,.572-.317,1.085-.829,1.341l-3.161,1.581-2.561-1.14c-1.25-.58-1.797-2.069-1.217-3.32,.115-.25,.007-.548-.244-.664-.248-.117-.548-.007-.664,.244-.811,1.75-.046,3.835,1.712,4.65l17.246,7.675c.486,.233,1.001,.344,1.508,.344,1.305,0,2.56-.733,3.161-1.986,.119-.249,.014-.548-.235-.667Zm-15.098-5.823c.853-.426,1.382-1.283,1.382-2.236v-2.084c0-.329,.11-.653,.302-.903l3.869-4.744c.017,.011,2.502,1.625,2.502,1.625l-3.362,4.235c-.246,.321-.352,.718-.297,1.119,.056,.4,.264,.753,.548,.963l1.954,1.799c.308,.284,.484,.686,.484,1.104v4.7l-9.807-4.364,2.425-1.213ZM18.5,5c1.379,0,2.5-1.122,2.5-2.5s-1.121-2.5-2.5-2.5-2.5,1.122-2.5,2.5,1.121,2.5,2.5,2.5Zm0-4c.827,0,1.5,.673,1.5,1.5s-.673,1.5-1.5,1.5-1.5-.673-1.5-1.5,.673-1.5,1.5-1.5Z"/></svg>
